<svg xmlns="http://www.w3.org/2000/svg" viewBox="0 0 860 220" width="860" height="220" font-family="ui-monospace, 'SF Mono', Menlo, monospace">
  <rect width="860" height="220" fill="#0f1117" rx="10"/>

  <text x="430" y="28" fill="#f1f5f9" font-size="14" font-weight="700" text-anchor="middle">lab-agent  LIMS Metrics Snapshot</text>
  <text x="430" y="46" fill="#64748b" font-size="10" text-anchor="middle">SQLite · lab_lims.db · 70 rows · 20 experiments · 5 metrics</text>

  <!-- Bar chart: mitotic_pct per well (simulated values) -->
  <!-- Wells: A1, B1, C1, A2, B2, C2, A3, B3 -->
  <!-- Values (simulated representative %) -->
  <!-- Chart area: x=40-820, y=60-170 -->

  <text x="40" y="68" fill="#64748b" font-size="9">mitotic_pct (%)</text>

  <!-- Y axis labels -->
  <text x="36" y="170" fill="#475569" font-size="8" text-anchor="end">0</text>
  <text x="36" y="143" fill="#475569" font-size="8" text-anchor="end">3</text>
  <text x="36" y="116" fill="#475569" font-size="8" text-anchor="end">6</text>
  <text x="36" y="89" fill="#475569" font-size="8" text-anchor="end">9</text>

  <!-- Grid lines -->
  <line x1="40" y1="170" x2="820" y2="170" stroke="#1e293b" stroke-width="1"/>
  <line x1="40" y1="143" x2="820" y2="143" stroke="#1e293b" stroke-width="1" stroke-dasharray="4,4"/>
  <line x1="40" y1="116" x2="820" y2="116" stroke="#1e293b" stroke-width="1" stroke-dasharray="4,4"/>
  <line x1="40" y1="89" x2="820" y2="89" stroke="#1e293b" stroke-width="1" stroke-dasharray="4,4"/>

  <!-- Bars: height = val/9 * 81px. Colors: cycle 1 = blue, 2 = purple, 3 = green -->
  <!-- Experiment 1 (blue) -->
  <rect x="52"  y="140" width="70" height="30" rx="4" fill="#2563eb" opacity="0.85"/>
  <rect x="138" y="134" width="70" height="36" rx="4" fill="#2563eb" opacity="0.85"/>
  <rect x="224" y="147" width="70" height="23" rx="4" fill="#2563eb" opacity="0.85"/>

  <!-- Experiment 2 (purple) -->
  <rect x="322" y="138" width="70" height="32" rx="4" fill="#7c3aed" opacity="0.85"/>
  <rect x="408" y="130" width="70" height="40" rx="4" fill="#7c3aed" opacity="0.85"/>
  <rect x="494" y="143" width="70" height="27" rx="4" fill="#7c3aed" opacity="0.85"/>

  <!-- Experiment 3 (green) -->
  <rect x="592" y="141" width="70" height="29" rx="4" fill="#16a34a" opacity="0.85"/>
  <rect x="678" y="127" width="70" height="43" rx="4" fill="#16a34a" opacity="0.85"/>
  <!-- top value label -->
  <text x="713" y="123" fill="#4ade80" font-size="9" font-weight="700" text-anchor="middle">9.5%</text>

  <!-- X axis labels -->
  <text x="87"  y="184" fill="#64748b" font-size="9" text-anchor="middle">A1</text>
  <text x="173" y="184" fill="#64748b" font-size="9" text-anchor="middle">B1</text>
  <text x="259" y="184" fill="#64748b" font-size="9" text-anchor="middle">C1</text>
  <text x="357" y="184" fill="#64748b" font-size="9" text-anchor="middle">A1</text>
  <text x="443" y="184" fill="#64748b" font-size="9" text-anchor="middle">B1</text>
  <text x="529" y="184" fill="#64748b" font-size="9" text-anchor="middle">C1</text>
  <text x="627" y="184" fill="#64748b" font-size="9" text-anchor="middle">A1</text>
  <text x="713" y="184" fill="#64748b" font-size="9" text-anchor="middle">B1</text>

  <!-- Experiment labels -->
  <text x="175" y="200" fill="#3b82f6" font-size="9.5" text-anchor="middle" font-weight="600">Experiment 1</text>
  <text x="443" y="200" fill="#7c3aed" font-size="9.5" text-anchor="middle" font-weight="600">Experiment 2</text>
  <text x="665" y="200" fill="#22c55e" font-size="9.5" text-anchor="middle" font-weight="600">Experiment 3</text>

  <!-- Legend: metrics -->
  <text x="40" y="212" fill="#475569" font-size="8.5">metrics: cells · mitotic_pct · live_pct · mean_dapi · mean_fitc   |   source: lab_lims.db via query_lims(summary=true)</text>
</svg>
